<svg width="58" height="70" viewBox="0 0 58 70" fill="none" xmlns="http://www.w3.org/2000/svg">
<g filter="url(#filter0_d_1201_3330)">
<path d="M29 11C21.26 11 15 17.26 15 25C15 35.5 29 51 29 51C29 51 43 35.5 43 25C43 17.26 36.74 11 29 11Z" fill="#FA4032"/>
</g>
<path d="M19.848 24.152H27.3V24.956H19.848V24.152ZM18.6 27.74H28.44V28.568H18.6V27.74ZM23.004 24.5H23.988V28.064H23.004V24.5ZM19.848 19.94H27.192V20.768H20.844V24.512H19.848V19.94ZM32.3511 20.972H33.1551V21.44C33.1551 22.072 33.0311 22.656 32.7831 23.192C32.5351 23.728 32.1831 24.192 31.7271 24.584C31.2791 24.976 30.7511 25.272 30.1431 25.472L29.6511 24.692C30.1951 24.524 30.6671 24.28 31.0671 23.96C31.4671 23.632 31.7791 23.252 32.0031 22.82C32.2351 22.38 32.3511 21.92 32.3511 21.44V20.972ZM32.5191 20.972H33.3351V21.44C33.3351 21.88 33.4431 22.304 33.6591 22.712C33.8831 23.12 34.1911 23.48 34.5831 23.792C34.9831 24.096 35.4511 24.328 35.9871 24.488L35.5071 25.28C34.9071 25.08 34.3831 24.792 33.9351 24.416C33.4871 24.04 33.1391 23.596 32.8911 23.084C32.6431 22.572 32.5191 22.024 32.5191 21.44V20.972ZM29.9391 20.408H35.7351V21.212H29.9391V20.408ZM32.3511 19.04H33.3471V20.816H32.3511V19.04ZM37.0671 19.076H38.0631V25.7H37.0671V19.076ZM37.7871 21.968H39.6591V22.808H37.7871V21.968ZM31.0071 26.264H38.0631V29.948H37.0671V27.08H31.0071V26.264Z" fill="white"/>
<defs>
<filter id="filter0_d_1201_3330" x="0" y="0" width="58" height="70" filterUnits="userSpaceOnUse" color-interpolation-filters="sRGB">
<feFlood flood-opacity="0" result="BackgroundImageFix"/>
<feColorMatrix in="SourceAlpha" type="matrix" values="0 0 0 0 0 0 0 0 0 0 0 0 0 0 0 0 0 0 127 0" result="hardAlpha"/>
<feOffset dy="4"/>
<feGaussianBlur stdDeviation="7.5"/>
<feComposite in2="hardAlpha" operator="out"/>
<feColorMatrix type="matrix" values="0 0 0 0 0 0 0 0 0 0 0 0 0 0 0 0 0 0 0.25 0"/>
<feBlend mode="normal" in2="BackgroundImageFix" result="effect1_dropShadow_1201_3330"/>
<feBlend mode="normal" in="SourceGraphic" in2="effect1_dropShadow_1201_3330" result="shape"/>
</filter>
</defs>
</svg>
