<svg width="24" height="24" viewBox="0 0 24 24" fill="current" xmlns="http://www.w3.org/2000/svg">
<path d="M2 11.175V9.1C3.65 8.7 5.30417 8.41667 6.9625 8.25C8.62083 8.08333 10.3 8 12 8C13.7 8 15.3792 8.08333 17.0375 8.25C18.6958 8.41667 20.35 8.7 22 9.1V11.175C21.6667 11.0917 21.3333 11.0167 21 10.95L20 10.75V14H18V10.4C17 10.2667 16 10.1667 15 10.1C14 10.0333 13 10 12 10C11 10 10 10.0292 9 10.0875C8 10.1458 7 10.2417 6 10.375V14H4V10.725C3.66667 10.7917 3.33333 10.8625 3 10.9375C2.66667 11.0125 2.33333 11.0917 2 11.175ZM6 21L7.45 12.225C7.75 12.1917 8.09167 12.1625 8.475 12.1375C8.85833 12.1125 9.2 12.0917 9.5 12.075L8 21H6ZM9 3H11L10.5 5.975C10.2 5.99167 9.8625 6.0125 9.4875 6.0375C9.1125 6.0625 8.775 6.09167 8.475 6.125L9 3ZM11 21H13V17H11V21ZM11 15H13V12.025H11V15ZM13 3H15L15.525 6.125C15.225 6.10833 14.8875 6.08333 14.5125 6.05C14.1375 6.01667 13.8 5.99167 13.5 5.975L13 3ZM16 21L14.5 12.075C14.8 12.0917 15.1417 12.1167 15.525 12.15C15.9083 12.1833 16.25 12.2167 16.55 12.25L18 21H16Z" fill="current"/>
</svg>
