<svg width="13" height="21" viewBox="0 0 13 21" fill="none" xmlns="http://www.w3.org/2000/svg">
<path d="M2.38752 20.5V15.5C2.38752 14.5667 2.24586 13.875 1.96252 13.425C1.67919 12.975 1.30419 12.5333 0.837524 12.1L2.26252 10.675C2.46252 10.8583 2.65419 11.0542 2.83752 11.2625C3.02086 11.4708 3.20419 11.6917 3.38752 11.925C3.62086 11.6083 3.85836 11.3292 4.10002 11.0875C4.34169 10.8458 4.58752 10.6083 4.83752 10.375C5.47086 9.79167 6.04586 9.11667 6.56252 8.35C7.07919 7.58333 7.35419 6.24167 7.38752 4.325L5.81252 5.9L4.38752 4.5L8.38752 0.5L12.3875 4.5L10.9875 5.9L9.38752 4.325C9.35419 6.70833 8.98752 8.40417 8.28752 9.4125C7.58752 10.4208 6.88752 11.2417 6.18752 11.875C5.65419 12.3583 5.22086 12.8292 4.88752 13.2875C4.55419 13.7458 4.38752 14.4833 4.38752 15.5V20.5H2.38752Z" fill="white"/>
</svg>
