<svg width="24" height="24" viewBox="0 0 24 24" fill="none" xmlns="http://www.w3.org/2000/svg">
<path d="M7 23.5L9.8 9.4L8 10.1V13.5H6V8.8L11.05 6.65C11.2833 6.55 11.5292 6.49167 11.7875 6.475C12.0458 6.45833 12.2917 6.49167 12.525 6.575C12.7583 6.65833 12.9792 6.775 13.1875 6.925C13.3958 7.075 13.5667 7.26667 13.7 7.5L14.7 9.1C15.1333 9.8 15.7208 10.375 16.4625 10.825C17.2042 11.275 18.05 11.5 19 11.5V13.5C17.8333 13.5 16.7917 13.2583 15.875 12.775C14.9583 12.2917 14.175 11.675 13.525 10.925L12.9 14L15 16V23.5H13V17L10.9 15.4L9.1 23.5H7ZM13.5 6C12.95 6 12.4792 5.80417 12.0875 5.4125C11.6958 5.02083 11.5 4.55 11.5 4C11.5 3.45 11.6958 2.97917 12.0875 2.5875C12.4792 2.19583 12.95 2 13.5 2C14.05 2 14.5208 2.19583 14.9125 2.5875C15.3042 2.97917 15.5 3.45 15.5 4C15.5 4.55 15.3042 5.02083 14.9125 5.4125C14.5208 5.80417 14.05 6 13.5 6Z" fill="#CCCCCC"/>
<path d="M16.5 24H14.5L16.5 21.3H18L16.5 24Z" fill="#CCCCCC"/>
<path d="M13.8423 24H11.8423L13.8423 21.3H15.3423L13.8423 24Z" fill="#CCCCCC"/>
<path d="M16.5 24H14.5L16.5 21.3H18L16.5 24Z" fill="#CCCCCC"/>
<path d="M5 24H3L5 21.3H6.5L5 24Z" fill="#CCCCCC"/>
<path d="M8 24H6L8 21.3H9.5L8 24Z" fill="#CCCCCC"/>
<path d="M10.9 24H8.90002L10.9 21.3H12.4L10.9 24Z" fill="#CCCCCC"/>
</svg>
