<svg width="58" height="70" viewBox="0 0 58 70" fill="none" xmlns="http://www.w3.org/2000/svg">
<g filter="url(#filter0_d_1201_3326)">
<path d="M29 11C21.26 11 15 17.26 15 25C15 35.5 29 51 29 51C29 51 43 35.5 43 25C43 17.26 36.74 11 29 11Z" fill="#59BC6C"/>
</g>
<path d="M23.004 23.488H23.988V25.12H23.004V23.488ZM18.612 22.9H28.392V23.656H18.612V22.9ZM23.004 18.016H23.988V19.324H23.004V18.016ZM22.956 19.42H23.832V19.588C23.832 20.02 23.716 20.4 23.484 20.728C23.252 21.056 22.932 21.336 22.524 21.568C22.116 21.8 21.644 21.988 21.108 22.132C20.58 22.268 20.016 22.36 19.416 22.408L19.116 21.652C19.652 21.62 20.152 21.552 20.616 21.448C21.08 21.336 21.488 21.192 21.84 21.016C22.192 20.84 22.464 20.632 22.656 20.392C22.856 20.152 22.956 19.884 22.956 19.588V19.42ZM23.172 19.42H24.036V19.588C24.036 19.884 24.136 20.152 24.336 20.392C24.536 20.632 24.812 20.84 25.164 21.016C25.516 21.192 25.92 21.336 26.376 21.448C26.84 21.552 27.34 21.62 27.876 21.652L27.576 22.408C26.976 22.36 26.408 22.268 25.872 22.132C25.344 21.988 24.876 21.8 24.468 21.568C24.068 21.336 23.752 21.056 23.52 20.728C23.288 20.4 23.172 20.02 23.172 19.588V19.42ZM19.608 19.024H27.408V19.792H19.608V19.024ZM19.788 24.652H27.144V27.028H20.784V28.336H19.812V26.32H26.172V25.396H19.788V24.652ZM19.812 28.048H27.468V28.816H19.812V28.048ZM30.0831 18.532H31.0671V20.08H34.1271V18.532H35.1111V23.26H30.0831V18.532ZM31.0671 20.86V22.456H34.1271V20.86H31.0671ZM37.0671 18.076H38.0631V23.68H37.0671V18.076ZM37.6191 20.416H39.6591V21.232H37.6191V20.416ZM31.1631 24.196H38.0631V26.836H32.1711V28.456H31.1991V26.092H37.0791V24.988H31.1631V24.196ZM31.1991 28.012H38.4471V28.816H31.1991V28.012Z" fill="white"/>
</svg>
