<svg width="27" height="24" viewBox="0 0 27 24" fill="none" xmlns="http://www.w3.org/2000/svg">
<path d="M20.8973 17.5667L17.3836 13.8L19.1404 11.9333L20.8973 13.8L25.2432 9.1L27 10.9667L20.8973 17.5667ZM12.3288 24L8.41438 20.2C6.93493 18.7556 5.6661 17.4667 4.60788 16.3333C3.54966 15.2 2.67637 14.1333 1.98801 13.1333C1.29966 12.1333 0.796233 11.1667 0.47774 10.2333C0.159247 9.3 0 8.32222 0 7.3C0 5.21111 0.64726 3.47222 1.94178 2.08333C3.2363 0.694444 4.84932 0 6.78082 0C7.84932 0 8.86644 0.244444 9.83219 0.733333C10.7979 1.22222 11.6301 1.91111 12.3288 2.8C13.0274 1.91111 13.8596 1.22222 14.8253 0.733333C15.7911 0.244444 16.8082 0 17.8767 0C19.5411 0 20.9384 0.505556 22.0685 1.51667C23.1986 2.52778 23.9692 3.8 24.3801 5.33333H21.7603C21.3904 4.44444 20.8459 3.77778 20.1267 3.33333C19.4075 2.88889 18.6575 2.66667 17.8767 2.66667C16.8288 2.66667 15.9247 2.97222 15.1644 3.58333C14.4041 4.19444 13.6952 5 13.0377 6H11.6199C10.9829 5 10.2586 4.19444 9.44692 3.58333C8.63527 2.97222 7.74658 2.66667 6.78082 2.66667C5.60959 2.66667 4.5976 3.10556 3.74486 3.98333C2.89212 4.86111 2.46575 5.96667 2.46575 7.3C2.46575 8.03333 2.60959 8.77778 2.89726 9.53333C3.18493 10.2889 3.69863 11.1611 4.43836 12.15C5.17808 13.1389 6.18493 14.2944 7.4589 15.6167C8.73288 16.9389 10.3562 18.5333 12.3288 20.4C12.863 19.8889 13.4897 19.3 14.2089 18.6333C14.9281 17.9667 15.5034 17.4111 15.9349 16.9667L16.2123 17.2667L16.8134 17.9167L17.4144 18.5667L17.6918 18.8667C17.2397 19.3111 16.6644 19.8611 15.9658 20.5167C15.2671 21.1722 14.6507 21.7556 14.1164 22.2667L12.3288 24Z" fill="#3D444C"/>
</svg>
