<svg width="24" height="24" viewBox="0 0 24 24" fill="currentColor" xmlns="http://www.w3.org/2000/svg">
<path fill="currentColor" d="M4.75002 15.1C5.60002 14.45 6.55002 13.9375 7.60002 13.5625C8.65002 13.1875 9.75002 13 10.9 13C12.05 13 13.15 13.1875 14.2 13.5625C15.25 13.9375 16.2 14.45 17.05 15.1C17.6334 14.4167 18.0875 13.6417 18.4125 12.775C18.7375 11.9083 18.9 10.9833 18.9 10C18.9 7.78333 18.1209 5.89583 16.5625 4.3375C15.0042 2.77917 13.1167 2 10.9 2C8.68336 2 6.79586 2.77917 5.23752 4.3375C3.67919 5.89583 2.90002 7.78333 2.90002 10C2.90002 10.9833 3.06252 11.9083 3.38752 12.775C3.71252 13.6417 4.16669 14.4167 4.75002 15.1ZM10.9 11C9.91669 11 9.08752 10.6625 8.41252 9.9875C7.73752 9.3125 7.40002 8.48333 7.40002 7.5C7.40002 6.51667 7.73752 5.6875 8.41252 5.0125C9.08752 4.3375 9.91669 4 10.9 4C11.8834 4 12.7125 4.3375 13.3875 5.0125C14.0625 5.6875 14.4 6.51667 14.4 7.5C14.4 8.48333 14.0625 9.3125 13.3875 9.9875C12.7125 10.6625 11.8834 11 10.9 11ZM10.9 20C9.51669 20 8.21669 19.7375 7.00002 19.2125C5.78336 18.6875 4.72502 17.975 3.82502 17.075C2.92502 16.175 2.21252 15.1167 1.68752 13.9C1.16252 12.6833 0.900024 11.3833 0.900024 10C0.900024 8.61667 1.16252 7.31667 1.68752 6.1C2.21252 4.88333 2.92502 3.825 3.82502 2.925C4.72502 2.025 5.78336 1.3125 7.00002 0.7875C8.21669 0.2625 9.51669 0 10.9 0C12.2834 0 13.5834 0.2625 14.8 0.7875C16.0167 1.3125 17.075 2.025 17.975 2.925C18.875 3.825 19.5875 4.88333 20.1125 6.1C20.6375 7.31667 20.9 8.61667 20.9 10C20.9 11.3833 20.6375 12.6833 20.1125 13.9C19.5875 15.1167 18.875 16.175 17.975 17.075C17.075 17.975 16.0167 18.6875 14.8 19.2125C13.5834 19.7375 12.2834 20 10.9 20ZM10.9 18C11.7834 18 12.6167 17.8708 13.4 17.6125C14.1834 17.3542 14.9 16.9833 15.55 16.5C14.9 16.0167 14.1834 15.6458 13.4 15.3875C12.6167 15.1292 11.7834 15 10.9 15C10.0167 15 9.18336 15.1292 8.40002 15.3875C7.61669 15.6458 6.90002 16.0167 6.25002 16.5C6.90002 16.9833 7.61669 17.3542 8.40002 17.6125C9.18336 17.8708 10.0167 18 10.9 18ZM10.9 9C11.3334 9 11.6917 8.85833 11.975 8.575C12.2584 8.29167 12.4 7.93333 12.4 7.5C12.4 7.06667 12.2584 6.70833 11.975 6.425C11.6917 6.14167 11.3334 6 10.9 6C10.4667 6 10.1084 6.14167 9.82502 6.425C9.54169 6.70833 9.40002 7.06667 9.40002 7.5C9.40002 7.93333 9.54169 8.29167 9.82502 8.575C10.1084 8.85833 10.4667 9 10.9 9Z"/>
</svg>
