<svg width="15" height="15" viewBox="0 0 15 15" fill="currentColor" xmlns="http://www.w3.org/2000/svg">
<path d="M5.54765 11.0953C3.99716 11.0953 2.68492 10.5583 1.61095 9.48435C0.536984 8.41038 0 7.09815 0 5.54765C0 3.99716 0.536984 2.68492 1.61095 1.61095C2.68492 0.536984 3.99716 0 5.54765 0C7.09815 0 8.41038 0.536984 9.48435 1.61095C10.5583 2.68492 11.0953 3.99716 11.0953 5.54765C11.0953 6.17354 10.9957 6.76387 10.7966 7.31863C10.5974 7.8734 10.3272 8.36415 9.98578 8.7909L14.7653 13.5704C14.9218 13.7269 15 13.926 15 14.1679C15 14.4097 14.9218 14.6088 14.7653 14.7653C14.6088 14.9218 14.4097 15 14.1679 15C13.926 15 13.7269 14.9218 13.5704 14.7653L8.7909 9.98578C8.36415 10.3272 7.8734 10.5974 7.31863 10.7966C6.76387 10.9957 6.17354 11.0953 5.54765 11.0953ZM5.54765 9.38834C6.61451 9.38834 7.52134 9.01494 8.26814 8.26814C9.01494 7.52134 9.38834 6.61451 9.38834 5.54765C9.38834 4.4808 9.01494 3.57397 8.26814 2.82717C7.52134 2.08037 6.61451 1.70697 5.54765 1.70697C4.4808 1.70697 3.57397 2.08037 2.82717 2.82717C2.08037 3.57397 1.70697 4.4808 1.70697 5.54765C1.70697 6.61451 2.08037 7.52134 2.82717 8.26814C3.57397 9.01494 4.4808 9.38834 5.54765 9.38834Z" fill="currentColor"/>
</svg>
