<svg width="19" height="17" viewBox="0 0 19 17" fill="none" xmlns="http://www.w3.org/2000/svg">
<path d="M16.2469 10.1642C17.5884 8.8497 18.9479 7.27411 18.9479 5.21234C18.9479 3.89903 18.4262 2.63951 17.4975 1.71086C16.5689 0.782209 15.3093 0.260498 13.996 0.260498C12.4114 0.260498 11.295 0.710666 9.94452 2.06117C8.59401 0.710666 7.4776 0.260498 5.89301 0.260498C4.5797 0.260498 3.32018 0.782209 2.39152 1.71086C1.46287 2.63951 0.941162 3.89903 0.941162 5.21234C0.941162 7.28312 2.29167 8.8587 3.64217 10.1642L9.94452 16.4665L16.2469 10.1642Z" fill="url(#paint0_linear_1076_3343)"/>
<defs>
<linearGradient id="paint0_linear_1076_3343" x1="4.44247" y1="1.77981" x2="16.1127" y2="15.3105" gradientUnits="userSpaceOnUse">
<stop stop-color="#FA812F"/>
<stop offset="1" stop-color="#FA4032"/>
</linearGradient>
</defs>
</svg>
