<svg width="22" height="22" viewBox="0 0 22 22" fill="current" xmlns="http://www.w3.org/2000/svg">
<path d="M9.99999 21.95V19.95C7.91665 19.7167 6.12915 18.8542 4.63749 17.3625C3.14582 15.8709 2.28332 14.0834 2.04999 12H0.0499878V10H2.04999C2.28332 7.91672 3.14582 6.12922 4.63749 4.63755C6.12915 3.14588 7.91665 2.28338 9.99999 2.05005V0.0500488H12V2.05005C14.0833 2.28338 15.8708 3.14588 17.3625 4.63755C18.8542 6.12922 19.7167 7.91672 19.95 10H21.95V12H19.95C19.7167 14.0834 18.8542 15.8709 17.3625 17.3625C15.8708 18.8542 14.0833 19.7167 12 19.95V21.95H9.99999ZM11 18C12.9333 18 14.5833 17.3167 15.95 15.95C17.3167 14.5834 18 12.9334 18 11C18 9.06672 17.3167 7.41672 15.95 6.05005C14.5833 4.68338 12.9333 4.00005 11 4.00005C9.06665 4.00005 7.41665 4.68338 6.04999 6.05005C4.68332 7.41672 3.99999 9.06672 3.99999 11C3.99999 12.9334 4.68332 14.5834 6.04999 15.95C7.41665 17.3167 9.06665 18 11 18ZM11 15C9.89999 15 8.95832 14.6084 8.17499 13.825C7.39165 13.0417 6.99999 12.1 6.99999 11C6.99999 9.90005 7.39165 8.95838 8.17499 8.17505C8.95832 7.39172 9.89999 7.00005 11 7.00005C12.1 7.00005 13.0417 7.39172 13.825 8.17505C14.6083 8.95838 15 9.90005 15 11C15 12.1 14.6083 13.0417 13.825 13.825C13.0417 14.6084 12.1 15 11 15ZM11 13C11.55 13 12.0208 12.8042 12.4125 12.4125C12.8042 12.0209 13 11.55 13 11C13 10.45 12.8042 9.97922 12.4125 9.58755C12.0208 9.19588 11.55 9.00005 11 9.00005C10.45 9.00005 9.97915 9.19588 9.58749 9.58755C9.19582 9.97922 8.99999 10.45 8.99999 11C8.99999 11.55 9.19582 12.0209 9.58749 12.4125C9.97915 12.8042 10.45 13 11 13Z" fill="current"/>
</svg>
