<svg width="48" height="46" viewBox="0 0 48 46" fill="none" xmlns="http://www.w3.org/2000/svg">
<circle cx="24" cy="19" r="19" fill="white" fill-opacity="0.8"/>
<g filter="url(#filter0_d_1052_6088)">
<path d="M21 26V24H33V26H21ZM21 20V18H33V20H21ZM21 14V12H33V14H21ZM17 27C16.45 27 15.9792 26.8042 15.5875 26.4125C15.1958 26.0208 15 25.55 15 25C15 24.45 15.1958 23.9792 15.5875 23.5875C15.9792 23.1958 16.45 23 17 23C17.55 23 18.0208 23.1958 18.4125 23.5875C18.8042 23.9792 19 24.45 19 25C19 25.55 18.8042 26.0208 18.4125 26.4125C18.0208 26.8042 17.55 27 17 27ZM17 21C16.45 21 15.9792 20.8042 15.5875 20.4125C15.1958 20.0208 15 19.55 15 19C15 18.45 15.1958 17.9792 15.5875 17.5875C15.9792 17.1958 16.45 17 17 17C17.55 17 18.0208 17.1958 18.4125 17.5875C18.8042 17.9792 19 18.45 19 19C19 19.55 18.8042 20.0208 18.4125 20.4125C18.0208 20.8042 17.55 21 17 21ZM17 15C16.45 15 15.9792 14.8042 15.5875 14.4125C15.1958 14.0208 15 13.55 15 13C15 12.45 15.1958 11.9792 15.5875 11.5875C15.9792 11.1958 16.45 11 17 11C17.55 11 18.0208 11.1958 18.4125 11.5875C18.8042 11.9792 19 12.45 19 13C19 13.55 18.8042 14.0208 18.4125 14.4125C18.0208 14.8042 17.55 15 17 15Z" fill="#2D2D2D"/>
</g>
<defs>
<filter id="filter0_d_1052_6088" x="0" y="0" width="48" height="46" filterUnits="userSpaceOnUse" color-interpolation-filters="sRGB">
<feFlood flood-opacity="0" result="BackgroundImageFix"/>
<feColorMatrix in="SourceAlpha" type="matrix" values="0 0 0 0 0 0 0 0 0 0 0 0 0 0 0 0 0 0 127 0" result="hardAlpha"/>
<feOffset dy="4"/>
<feGaussianBlur stdDeviation="7.5"/>
<feComposite in2="hardAlpha" operator="out"/>
<feColorMatrix type="matrix" values="0 0 0 0 0 0 0 0 0 0 0 0 0 0 0 0 0 0 0.25 0"/>
<feBlend mode="normal" in2="BackgroundImageFix" result="effect1_dropShadow_1052_6088"/>
<feBlend mode="normal" in="SourceGraphic" in2="effect1_dropShadow_1052_6088" result="shape"/>
</filter>
</defs>
</svg>
