<svg width="58" height="70" viewBox="0 0 58 70" fill="none" xmlns="http://www.w3.org/2000/svg">
<g filter="url(#filter0_d_1140_3392)">
<path d="M29 11C21.26 11 15 17.26 15 25C15 35.5 29 51 29 51C29 51 43 35.5 43 25C43 17.26 36.74 11 29 11Z" fill="#FA4032"/>
</g>
<path d="M26 35.2799C24.9 35.2799 23.9583 34.8797 23.175 34.0793C22.3917 33.2789 22 32.3167 22 31.1927V22.8393C21.4167 22.6179 20.9375 22.2475 20.5625 21.7281C20.1875 21.2086 20 20.6168 20 19.9527C20 19.1011 20.2917 18.3774 20.875 17.7813C21.4583 17.1852 22.1667 16.8872 23 16.8872C23.8333 16.8872 24.5417 17.1852 25.125 17.7813C25.7083 18.3774 26 19.1011 26 19.9527C26 20.6168 25.8125 21.2086 25.4375 21.7281C25.0625 22.2475 24.5833 22.6179 24 22.8393V31.1927C24 31.7547 24.1958 32.2358 24.5875 32.636C24.9792 33.0362 25.45 33.2363 26 33.2363C26.55 33.2363 27.0208 33.0362 27.4125 32.636C27.8042 32.2358 28 31.7547 28 31.1927V20.9745C28 19.8505 28.3917 18.8883 29.175 18.0878C29.9583 17.2874 30.9 16.8872 32 16.8872C33.1 16.8872 34.0417 17.2874 34.825 18.0878C35.6083 18.8883 36 19.8505 36 20.9745V29.3278C36.5833 29.5492 37.0625 29.9196 37.4375 30.4391C37.8125 30.9585 38 31.5503 38 32.2145C38 33.066 37.7083 33.7898 37.125 34.3858C36.5417 34.9819 35.8333 35.2799 35 35.2799C34.1667 35.2799 33.4583 34.9819 32.875 34.3858C32.2917 33.7898 32 33.066 32 32.2145C32 31.5503 32.1875 30.9542 32.5625 30.4263C32.9375 29.8984 33.4167 29.5322 34 29.3278V20.9745C34 20.4125 33.8042 19.9314 33.4125 19.5312C33.0208 19.1309 32.55 18.9308 32 18.9308C31.45 18.9308 30.9792 19.1309 30.5875 19.5312C30.1958 19.9314 30 20.4125 30 20.9745V31.1927C30 32.3167 29.6083 33.2789 28.825 34.0793C28.0417 34.8797 27.1 35.2799 26 35.2799ZM23 20.9745C23.2833 20.9745 23.5208 20.8766 23.7125 20.6807C23.9042 20.4849 24 20.2422 24 19.9527C24 19.6631 23.9042 19.4205 23.7125 19.2246C23.5208 19.0288 23.2833 18.9308 23 18.9308C22.7167 18.9308 22.4792 19.0288 22.2875 19.2246C22.0958 19.4205 22 19.6631 22 19.9527C22 20.2422 22.0958 20.4849 22.2875 20.6807C22.4792 20.8766 22.7167 20.9745 23 20.9745ZM35 33.2363C35.2833 33.2363 35.5208 33.1384 35.7125 32.9425C35.9042 32.7467 36 32.504 36 32.2145C36 31.925 35.9042 31.6823 35.7125 31.4864C35.5208 31.2906 35.2833 31.1927 35 31.1927C34.7167 31.1927 34.4792 31.2906 34.2875 31.4864C34.0958 31.6823 34 31.925 34 32.2145C34 32.504 34.0958 32.7467 34.2875 32.9425C34.4792 33.1384 34.7167 33.2363 35 33.2363Z" fill="white"/>
<defs>
<filter id="filter0_d_1140_3392" x="0" y="0" width="58" height="70" filterUnits="userSpaceOnUse" color-interpolation-filters="sRGB">
<feFlood flood-opacity="0" result="BackgroundImageFix"/>
<feColorMatrix in="SourceAlpha" type="matrix" values="0 0 0 0 0 0 0 0 0 0 0 0 0 0 0 0 0 0 127 0" result="hardAlpha"/>
<feOffset dy="4"/>
<feGaussianBlur stdDeviation="7.5"/>
<feComposite in2="hardAlpha" operator="out"/>
<feColorMatrix type="matrix" values="0 0 0 0 0 0 0 0 0 0 0 0 0 0 0 0 0 0 0.25 0"/>
<feBlend mode="normal" in2="BackgroundImageFix" result="effect1_dropShadow_1140_3392"/>
<feBlend mode="normal" in="SourceGraphic" in2="effect1_dropShadow_1140_3392" result="shape"/>
</filter>
</defs>
</svg>
