<svg width="58" height="70" viewBox="0 0 58 70" fill="none" xmlns="http://www.w3.org/2000/svg">
<g filter="url(#filter0_d_1140_3389)">
<path d="M29 11C21.26 11 15 17.26 15 25C15 35.5 29 51 29 51C29 51 43 35.5 43 25C43 17.26 36.74 11 29 11Z" fill="#FA4032"/>
</g>
<path d="M21.5 23.0183C21.0667 23.0183 20.7083 22.8735 20.425 22.584C20.1417 22.2945 20 21.9284 20 21.4856C20 21.0428 20.1417 20.6766 20.425 20.3871C20.7083 20.0976 21.0667 19.9528 21.5 19.9528C21.9333 19.9528 22.2917 20.0976 22.575 20.3871C22.8583 20.6766 23 21.0428 23 21.4856C23 21.9284 22.8583 22.2945 22.575 22.584C22.2917 22.8735 21.9333 23.0183 21.5 23.0183ZM20 34.2583V29.1492H19V25.0619C19 24.7724 19.0958 24.5297 19.2875 24.3339C19.4792 24.138 19.7167 24.0401 20 24.0401H23C23.2833 24.0401 23.5208 24.138 23.7125 24.3339C23.9042 24.5297 24 24.7724 24 25.0619V29.1492H23V32.2147H31V27.1056H29.25C28.0667 27.1056 27.0625 26.6841 26.2375 25.8411C25.4125 24.9981 25 23.972 25 22.7628C25 21.8602 25.2375 21.0556 25.7125 20.3488C26.1875 19.642 26.8 19.1184 27.55 18.7777C27.7333 17.6708 28.2375 16.7384 29.0625 15.9805C29.8875 15.2227 30.8667 14.8438 32 14.8438C33.1333 14.8438 34.1125 15.2227 34.9375 15.9805C35.7625 16.7384 36.2667 17.6708 36.45 18.7777C37.2 19.1184 37.8125 19.642 38.2875 20.3488C38.7625 21.0556 39 21.8602 39 22.7628C39 23.972 38.5875 24.9981 37.7625 25.8411C36.9375 26.6841 35.9333 27.1056 34.75 27.1056H33V32.2147H38V34.2583H20ZM29.25 25.0619H34.75C35.3833 25.0619 35.9167 24.8405 36.35 24.3977C36.7833 23.955 37 23.41 37 22.7628C37 22.303 36.8792 21.8858 36.6375 21.5111C36.3958 21.1364 36.0667 20.8554 35.65 20.6681L34.6 20.2083L34.45 19.0843C34.35 18.4542 34.0708 17.9305 33.6125 17.5132C33.1542 17.096 32.6167 16.8874 32 16.8874C31.3833 16.8874 30.8458 17.096 30.3875 17.5132C29.9292 17.9305 29.65 18.4542 29.55 19.0843L29.4 20.2083L28.35 20.6681C27.9333 20.8554 27.6042 21.1364 27.3625 21.5111C27.1208 21.8858 27 22.303 27 22.7628C27 23.41 27.2167 23.955 27.65 24.3977C28.0833 24.8405 28.6167 25.0619 29.25 25.0619Z" fill="white"/>
<defs>
<filter id="filter0_d_1140_3389" x="0" y="0" width="58" height="70" filterUnits="userSpaceOnUse" color-interpolation-filters="sRGB">
<feFlood flood-opacity="0" result="BackgroundImageFix"/>
<feColorMatrix in="SourceAlpha" type="matrix" values="0 0 0 0 0 0 0 0 0 0 0 0 0 0 0 0 0 0 127 0" result="hardAlpha"/>
<feOffset dy="4"/>
<feGaussianBlur stdDeviation="7.5"/>
<feComposite in2="hardAlpha" operator="out"/>
<feColorMatrix type="matrix" values="0 0 0 0 0 0 0 0 0 0 0 0 0 0 0 0 0 0 0.25 0"/>
<feBlend mode="normal" in2="BackgroundImageFix" result="effect1_dropShadow_1140_3389"/>
<feBlend mode="normal" in="SourceGraphic" in2="effect1_dropShadow_1140_3389" result="shape"/>
</filter>
</defs>
</svg>
