<svg width="58" height="70" viewBox="0 0 58 70" fill="none" xmlns="http://www.w3.org/2000/svg">
<g filter="url(#filter0_d_1140_3350)">
<path d="M29 11C21.26 11 15 17.26 15 25C15 35.5 29 51 29 51C29 51 43 35.5 43 25C43 17.26 36.74 11 29 11Z" fill="#FA4032"/>
</g>
<path d="M18 26.0836V24.04H24V26.0836H18ZM24.75 22.1496L22.65 20.0038L24.05 18.5732L26.15 20.719L24.75 22.1496ZM28 19.9527V13.8218H30V19.9527H28ZM33.25 22.1496L31.85 20.719L33.95 18.5732L35.35 20.0038L33.25 22.1496ZM34 26.0836V24.04H40V26.0836H34ZM29 28.1272C28.1667 28.1272 27.4583 27.8292 26.875 27.2331C26.2917 26.6371 26 25.9133 26 25.0618C26 24.2103 26.2917 23.4865 26.875 22.8904C27.4583 22.2944 28.1667 21.9963 29 21.9963C29.8333 21.9963 30.5417 22.2944 31.125 22.8904C31.7083 23.4865 32 24.2103 32 25.0618C32 25.9133 31.7083 26.6371 31.125 27.2331C30.5417 27.8292 29.8333 28.1272 29 28.1272ZM33.95 31.5503L31.85 29.4045L33.25 27.974L35.35 30.1198L33.95 31.5503ZM24.05 31.5503L22.65 30.1198L24.75 27.974L26.15 29.4045L24.05 31.5503ZM28 36.3018V30.1709H30V36.3018H28Z" fill="white"/>
<defs>
<filter id="filter0_d_1140_3350" x="0" y="0" width="58" height="70" filterUnits="userSpaceOnUse" color-interpolation-filters="sRGB">
<feFlood flood-opacity="0" result="BackgroundImageFix"/>
<feColorMatrix in="SourceAlpha" type="matrix" values="0 0 0 0 0 0 0 0 0 0 0 0 0 0 0 0 0 0 127 0" result="hardAlpha"/>
<feOffset dy="4"/>
<feGaussianBlur stdDeviation="7.5"/>
<feComposite in2="hardAlpha" operator="out"/>
<feColorMatrix type="matrix" values="0 0 0 0 0 0 0 0 0 0 0 0 0 0 0 0 0 0 0.25 0"/>
<feBlend mode="normal" in2="BackgroundImageFix" result="effect1_dropShadow_1140_3350"/>
<feBlend mode="normal" in="SourceGraphic" in2="effect1_dropShadow_1140_3350" result="shape"/>
</filter>
</defs>
</svg>
