<svg width="58" height="70" viewBox="0 0 58 70" fill="none" xmlns="http://www.w3.org/2000/svg">
<g filter="url(#filter0_d_1140_3400)">
<path d="M29 11C21.26 11 15 17.26 15 25C15 35.5 29 51 29 51C29 51 43 35.5 43 25C43 17.26 36.74 11 29 11Z" fill="#FA4032"/>
</g>
<path d="M18 31.1928V15.8655H20V26.0837H28V17.9091H36C37.1 17.9091 38.0417 18.3093 38.825 19.1098C39.6083 19.9102 40 20.8724 40 21.9964V31.1928H38V28.1273H20V31.1928H18ZM24 25.0618C23.1667 25.0618 22.4583 24.7638 21.875 24.1678C21.2917 23.5717 21 22.8479 21 21.9964C21 21.1449 21.2917 20.4211 21.875 19.825C22.4583 19.229 23.1667 18.9309 24 18.9309C24.8333 18.9309 25.5417 19.229 26.125 19.825C26.7083 20.4211 27 21.1449 27 21.9964C27 22.8479 26.7083 23.5717 26.125 24.1678C25.5417 24.7638 24.8333 25.0618 24 25.0618ZM30 26.0837H38V21.9964C38 21.4344 37.8042 20.9533 37.4125 20.5531C37.0208 20.1529 36.55 19.9528 36 19.9528H30V26.0837ZM24 23.0182C24.2833 23.0182 24.5208 22.9203 24.7125 22.7244C24.9042 22.5286 25 22.2859 25 21.9964C25 21.7069 24.9042 21.4642 24.7125 21.2683C24.5208 21.0725 24.2833 20.9746 24 20.9746C23.7167 20.9746 23.4792 21.0725 23.2875 21.2683C23.0958 21.4642 23 21.7069 23 21.9964C23 22.2859 23.0958 22.5286 23.2875 22.7244C23.4792 22.9203 23.7167 23.0182 24 23.0182Z" fill="white"/>
<defs>
<filter id="filter0_d_1140_3400" x="0" y="0" width="58" height="70" filterUnits="userSpaceOnUse" color-interpolation-filters="sRGB">
<feFlood flood-opacity="0" result="BackgroundImageFix"/>
<feColorMatrix in="SourceAlpha" type="matrix" values="0 0 0 0 0 0 0 0 0 0 0 0 0 0 0 0 0 0 127 0" result="hardAlpha"/>
<feOffset dy="4"/>
<feGaussianBlur stdDeviation="7.5"/>
<feComposite in2="hardAlpha" operator="out"/>
<feColorMatrix type="matrix" values="0 0 0 0 0 0 0 0 0 0 0 0 0 0 0 0 0 0 0.25 0"/>
<feBlend mode="normal" in2="BackgroundImageFix" result="effect1_dropShadow_1140_3400"/>
<feBlend mode="normal" in="SourceGraphic" in2="effect1_dropShadow_1140_3400" result="shape"/>
</filter>
</defs>
</svg>
