<svg width="58" height="70" viewBox="0 0 58 70" fill="none" xmlns="http://www.w3.org/2000/svg">
<g filter="url(#filter0_d_1140_3407)">
<path d="M29 11C21.26 11 15 17.26 15 25C15 35.5 29 51 29 51C29 51 43 35.5 43 25C43 17.26 36.74 11 29 11Z" fill="#FA4032"/>
</g>
<path d="M25 36.3018C24.45 36.3018 23.9792 36.1017 23.5875 35.7015C23.1958 35.3013 23 34.8202 23 34.2582C23 33.6962 23.1958 33.2151 23.5875 32.8149C23.9792 32.4147 24.45 32.2146 25 32.2146C25.55 32.2146 26.0208 32.4147 26.4125 32.8149C26.8042 33.2151 27 33.6962 27 34.2582C27 34.8202 26.8042 35.3013 26.4125 35.7015C26.0208 36.1017 25.55 36.3018 25 36.3018ZM35 36.3018C34.45 36.3018 33.9792 36.1017 33.5875 35.7015C33.1958 35.3013 33 34.8202 33 34.2582C33 33.6962 33.1958 33.2151 33.5875 32.8149C33.9792 32.4147 34.45 32.2146 35 32.2146C35.55 32.2146 36.0208 32.4147 36.4125 32.8149C36.8042 33.2151 37 33.6962 37 34.2582C37 34.8202 36.8042 35.3013 36.4125 35.7015C36.0208 36.1017 35.55 36.3018 35 36.3018ZM24.15 19.9528L26.55 25.0618H33.55L36.3 19.9528H24.15ZM23.2 17.9091H37.95C38.3333 17.9091 38.625 18.0837 38.825 18.4328C39.025 18.7819 39.0333 19.1353 38.85 19.4929L35.3 26.0326C35.1167 26.3732 34.8708 26.6371 34.5625 26.8245C34.2542 27.0118 33.9167 27.1055 33.55 27.1055H26.1L25 29.1491H37V31.1928H25C24.25 31.1928 23.6833 30.8564 23.3 30.1837C22.9167 29.511 22.9 28.8426 23.25 28.1784L24.6 25.6749L21 17.9091H19V15.8655H22.25L23.2 17.9091Z" fill="white"/>
<defs>
<filter id="filter0_d_1140_3407" x="0" y="0" width="58" height="70" filterUnits="userSpaceOnUse" color-interpolation-filters="sRGB">
<feFlood flood-opacity="0" result="BackgroundImageFix"/>
<feColorMatrix in="SourceAlpha" type="matrix" values="0 0 0 0 0 0 0 0 0 0 0 0 0 0 0 0 0 0 127 0" result="hardAlpha"/>
<feOffset dy="4"/>
<feGaussianBlur stdDeviation="7.5"/>
<feComposite in2="hardAlpha" operator="out"/>
<feColorMatrix type="matrix" values="0 0 0 0 0 0 0 0 0 0 0 0 0 0 0 0 0 0 0.25 0"/>
<feBlend mode="normal" in2="BackgroundImageFix" result="effect1_dropShadow_1140_3407"/>
<feBlend mode="normal" in="SourceGraphic" in2="effect1_dropShadow_1140_3407" result="shape"/>
</filter>
</defs>
</svg>
