<svg width="58" height="70" viewBox="0 0 58 70" fill="none" xmlns="http://www.w3.org/2000/svg">
<g filter="url(#filter0_d_1140_3357)">
<path d="M29 11C21.26 11 15 17.26 15 25C15 35.5 29 51 29 51C29 51 43 35.5 43 25C43 17.26 36.74 11 29 11Z" fill="#FA4032"/>
</g>
<path d="M21.05 24.0401H23.9C23.8 23.393 23.6083 22.7884 23.325 22.2264C23.0417 21.6644 22.6833 21.162 22.25 20.7192C21.95 21.2131 21.6958 21.7368 21.4875 22.2902C21.2792 22.8437 21.1333 23.427 21.05 24.0401ZM34.1 24.0401H36.95C36.8667 23.427 36.7208 22.8437 36.5125 22.2902C36.3042 21.7368 36.05 21.2131 35.75 20.7192C35.3167 21.162 34.9583 21.6644 34.675 22.2264C34.3917 22.7884 34.2 23.393 34.1 24.0401ZM22.25 29.4047C22.6833 28.9619 23.0417 28.4595 23.325 27.8975C23.6083 27.3355 23.8 26.7309 23.9 26.0837H21.05C21.1333 26.6968 21.2792 27.2801 21.4875 27.8336C21.6958 28.3871 21.95 28.9108 22.25 29.4047ZM35.75 29.4047C36.05 28.9108 36.3042 28.3871 36.5125 27.8336C36.7208 27.2801 36.8667 26.6968 36.95 26.0837H34.1C34.2 26.7309 34.3917 27.3355 34.675 27.8975C34.9583 28.4595 35.3167 28.9619 35.75 29.4047ZM25.95 24.0401H28V16.9385C27.1167 17.0747 26.2958 17.3259 25.5375 17.6921C24.7792 18.0582 24.1 18.5393 23.5 19.1354C24.15 19.7825 24.6875 20.5191 25.1125 21.3451C25.5375 22.171 25.8167 23.0694 25.95 24.0401ZM30 24.0401H32.05C32.1833 23.0694 32.4625 22.171 32.8875 21.3451C33.3125 20.5191 33.85 19.7825 34.5 19.1354C33.9 18.5393 33.2208 18.0582 32.4625 17.6921C31.7042 17.3259 30.8833 17.0747 30 16.9385V24.0401ZM28 33.1854V26.0837H25.95C25.8167 27.0545 25.5375 27.9528 25.1125 28.7788C24.6875 29.6048 24.15 30.3413 23.5 30.9885C24.1 31.5845 24.7792 32.0656 25.5375 32.4318C26.2958 32.7979 27.1167 33.0491 28 33.1854ZM30 33.1854C30.8833 33.0491 31.7042 32.7979 32.4625 32.4318C33.2208 32.0656 33.9 31.5845 34.5 30.9885C33.85 30.3413 33.3125 29.6048 32.8875 28.7788C32.4625 27.9528 32.1833 27.0545 32.05 26.0837H30V33.1854ZM29 35.2801C27.6167 35.2801 26.3167 35.0119 25.1 34.4754C23.8833 33.939 22.825 33.2109 21.925 32.2913C21.025 31.3717 20.3125 30.2902 19.7875 29.047C19.2625 27.8038 19 26.4754 19 25.0619C19 23.6484 19.2625 22.3201 19.7875 21.0768C20.3125 19.8336 21.025 18.7522 21.925 17.8326C22.825 16.9129 23.8833 16.1849 25.1 15.6484C26.3167 15.112 27.6167 14.8438 29 14.8438C30.3833 14.8438 31.6833 15.112 32.9 15.6484C34.1167 16.1849 35.175 16.9129 36.075 17.8326C36.975 18.7522 37.6875 19.8336 38.2125 21.0768C38.7375 22.3201 39 23.6484 39 25.0619C39 26.4754 38.7375 27.8038 38.2125 29.047C37.6875 30.2902 36.975 31.3717 36.075 32.2913C35.175 33.2109 34.1167 33.939 32.9 34.4754C31.6833 35.0119 30.3833 35.2801 29 35.2801Z" fill="white"/>
<defs>
<filter id="filter0_d_1140_3357" x="0" y="0" width="58" height="70" filterUnits="userSpaceOnUse" color-interpolation-filters="sRGB">
<feFlood flood-opacity="0" result="BackgroundImageFix"/>
<feColorMatrix in="SourceAlpha" type="matrix" values="0 0 0 0 0 0 0 0 0 0 0 0 0 0 0 0 0 0 127 0" result="hardAlpha"/>
<feOffset dy="4"/>
<feGaussianBlur stdDeviation="7.5"/>
<feComposite in2="hardAlpha" operator="out"/>
<feColorMatrix type="matrix" values="0 0 0 0 0 0 0 0 0 0 0 0 0 0 0 0 0 0 0.25 0"/>
<feBlend mode="normal" in2="BackgroundImageFix" result="effect1_dropShadow_1140_3357"/>
<feBlend mode="normal" in="SourceGraphic" in2="effect1_dropShadow_1140_3357" result="shape"/>
</filter>
</defs>
</svg>
