<svg width="58" height="70" viewBox="0 0 58 70" fill="none" xmlns="http://www.w3.org/2000/svg">
<g filter="url(#filter0_d_1140_3386)">
<path d="M29 11C21.26 11 15 17.26 15 25C15 35.5 29 51 29 51C29 51 43 35.5 43 25C43 17.26 36.74 11 29 11Z" fill="#FA4032"/>
</g>
<path d="M24.5 30.6818L31.5 28.6382L33.5 21.4855L26.5 23.5291L24.5 30.6818ZM29 27.6164C28.5833 27.6164 28.2292 27.4674 27.9375 27.1693C27.6458 26.8713 27.5 26.5094 27.5 26.0837C27.5 25.6579 27.6458 25.296 27.9375 24.998C28.2292 24.6999 28.5833 24.5509 29 24.5509C29.4167 24.5509 29.7708 24.6999 30.0625 24.998C30.3542 25.296 30.5 25.6579 30.5 26.0837C30.5 26.5094 30.3542 26.8713 30.0625 27.1693C29.7708 27.4674 29.4167 27.6164 29 27.6164ZM29 36.3018C27.6167 36.3018 26.3167 36.0336 25.1 35.4972C23.8833 34.9607 22.825 34.2327 21.925 33.313C21.025 32.3934 20.3125 31.312 19.7875 30.0688C19.2625 28.8255 19 27.4972 19 26.0837C19 24.6701 19.2625 23.3418 19.7875 22.0986C20.3125 20.8554 21.025 19.7739 21.925 18.8543C22.825 17.9347 23.8833 17.2066 25.1 16.6702C26.3167 16.1337 27.6167 15.8655 29 15.8655C30.3833 15.8655 31.6833 16.1337 32.9 16.6702C34.1167 17.2066 35.175 17.9347 36.075 18.8543C36.975 19.7739 37.6875 20.8554 38.2125 22.0986C38.7375 23.3418 39 24.6701 39 26.0837C39 27.4972 38.7375 28.8255 38.2125 30.0688C37.6875 31.312 36.975 32.3934 36.075 33.313C35.175 34.2327 34.1167 34.9607 32.9 35.4972C31.6833 36.0336 30.3833 36.3018 29 36.3018ZM29 34.2582C31.2167 34.2582 33.1042 33.462 34.6625 31.8697C36.2208 30.2774 37 28.3487 37 26.0837C37 23.8186 36.2208 21.8899 34.6625 20.2976C33.1042 18.7053 31.2167 17.9091 29 17.9091C26.7833 17.9091 24.8958 18.7053 23.3375 20.2976C21.7792 21.8899 21 23.8186 21 26.0837C21 28.3487 21.7792 30.2774 23.3375 31.8697C24.8958 33.462 26.7833 34.2582 29 34.2582Z" fill="white"/>
<defs>
<filter id="filter0_d_1140_3386" x="0" y="0" width="58" height="70" filterUnits="userSpaceOnUse" color-interpolation-filters="sRGB">
<feFlood flood-opacity="0" result="BackgroundImageFix"/>
<feColorMatrix in="SourceAlpha" type="matrix" values="0 0 0 0 0 0 0 0 0 0 0 0 0 0 0 0 0 0 127 0" result="hardAlpha"/>
<feOffset dy="4"/>
<feGaussianBlur stdDeviation="7.5"/>
<feComposite in2="hardAlpha" operator="out"/>
<feColorMatrix type="matrix" values="0 0 0 0 0 0 0 0 0 0 0 0 0 0 0 0 0 0 0.25 0"/>
<feBlend mode="normal" in2="BackgroundImageFix" result="effect1_dropShadow_1140_3386"/>
<feBlend mode="normal" in="SourceGraphic" in2="effect1_dropShadow_1140_3386" result="shape"/>
</filter>
</defs>
</svg>
